inDegrees=no
num_controls=7
num_derivatives=13
num_iterations=163
num_multipliers=7
num_parameters=0
num_slacks=7
num_states=26
objective=5.348858
objective_accelerations=0.719637
objective_balance=0.022810
objective_effort=0.176028
objective_height=4.311911
objective_ligament=0.118473
solver_duration=1800.951171
status=Solve_Succeeded
success=true
DataType=double
version=3
OpenSimVersion=4.4-2022-07-23-0e9fedc
endheader
time	/jointset/ground_pelvis/pelvis_tilt/value	/jointset/ground_pelvis/pelvis_tx/value	/jointset/ground_pelvis/pelvis_ty/value	/jointset/hip_l/hip_flexion_l/value	/jointset/hip_l/hip_adduction_l/value	/jointset/hip_l/hip_rotation_l/value	/jointset/back/lumbar_extension/value	/jointset/patellofemoral_l/patellar_flexion_l/value	/jointset/knee_l/knee_flexion_l/value	/jointset/knee_l/knee_adduction_l/value	/jointset/knee_l/knee_rotation_l/value	/jointset/ankle_l/ankle_angle_l/value	/jointset/subtalar_l/subtalar_angle_l/value	/jointset/ground_pelvis/pelvis_tilt/speed	/jointset/ground_pelvis/pelvis_tx/speed	/jointset/ground_pelvis/pelvis_ty/speed	/jointset/hip_l/hip_flexion_l/speed	/jointset/hip_l/hip_adduction_l/speed	/jointset/hip_l/hip_rotation_l/speed	/jointset/back/lumbar_extension/speed	/jointset/patellofemoral_l/patellar_flexion_l/speed	/jointset/knee_l/knee_flexion_l/speed	/jointset/knee_l/knee_adduction_l/speed	/jointset/knee_l/knee_rotation_l/speed	/jointset/ankle_l/ankle_angle_l/speed	/jointset/subtalar_l/subtalar_angle_l/speed	/forceset/tau_hip_flexion_l	/forceset/tau_hip_adduction_l	/forceset/tau_hip_rotation_l	/forceset/tau_knee_flexion_l	/forceset/tau_ankle_angle_l	/forceset/tau_subtalar_angle_l	/forceset/tau_lumbar_extension	lambda_cid13_p0	lambda_cid13_p1	lambda_cid13_p2	lambda_cid13_p3	lambda_cid13_p4	lambda_cid13_p5	lambda_cid14_p0	/jointset/ground_pelvis/pelvis_tilt/accel	/jointset/ground_pelvis/pelvis_tx/accel	/jointset/ground_pelvis/pelvis_ty/accel	/jointset/hip_l/hip_flexion_l/accel	/jointset/hip_l/hip_adduction_l/accel	/jointset/hip_l/hip_rotation_l/accel	/jointset/back/lumbar_extension/accel	/jointset/patellofemoral_l/patellar_flexion_l/accel	/jointset/knee_l/knee_flexion_l/accel	/jointset/knee_l/knee_adduction_l/accel	/jointset/knee_l/knee_rotation_l/accel	/jointset/ankle_l/ankle_angle_l/accel	/jointset/subtalar_l/subtalar_angle_l/accel	gamma_cid13_p0	gamma_cid13_p1	gamma_cid13_p2	gamma_cid13_p3	gamma_cid13_p4	gamma_cid13_p5	gamma_cid14_p0
0.5	-0.2128950324486578	0.03529910506575823	0.7739648788098623	0.9779296460010509	-0.361406001720921	-0.01038561396617389	-0.4000902329772335	0.955167571073382	0.955167571073381	-0.02520343527057545	-0.1745315966264317	0.3189494098764807	0.1686962336051946	-0.7472973736832944	-0.1631335587471215	-0.5175432569884943	2.360911119632681	0.02135916727311338	0.5459495480679306	-0.308840231235177	1.982844545741087	1.982844545741097	0.275518793867272	-3.082238825396044e-05	0.529827295922402	0.2548390975365572	-0.1007048375554588	0.0193925730060278	-0.002248790714888632	-0.1999251162475233	-0.004721489994394855	0.02529426886064349	0.1144081224862382	-24.84084556731092	-6.540683844253706	0.653052326091079	-0.4889224157491164	-440.2007029922081	-75.55500980837154	-4.973367275353188	0.2551108467472786	0.3864245547883798	-0.4486068981888657	-1.144806374266278	0.1428723605945287	-0.684642252398265	1.394141318986106	-1.625024037239704	-1.625024037239707	-0.2202868394635461	0.006820702843942162	-0.8765510145951735	0.1153476891947488	-4.754823212550088e-07	-4.666855349347825e-07	5.860709237445734e-06	2.677886895385403e-07	-1.129926001336218e-06	-1.166868049429832e-06	-7.688498876642761e-07
0.51	-0.2203531776802814	0.03368737211106514	0.768768323586753	1.001476601477663	-0.3611877114675782	-0.004955206077577097	-0.403109778098645	0.974911216193569	0.9749112161935658	-0.02246809726226088	-0.1745316925340271	0.3242022825664269	0.1712461597608647	-0.744224445627591	-0.1591928202811753	-0.5216475401267385	2.348154725764352	0.02229826429623157	0.5400846800391046	-0.2950433432715238	1.965604939704262	1.965604939704289	0.2715435135979855	-1.265489319688533e-06	0.52067370805294	0.2551021603680667	-0.1054368280034709	0.0204235706207508	-0.002661353582294613	-0.2021931903816981	-0.006554222031148707	0.02563022865899429	0.1180120994952706	-25.58690760428956	-6.472200583151596	0.5464580393783669	-0.3001385112056665	-443.4756212807645	-75.6138505025453	-4.347721856043952	0.3494302269945747	0.4009884818779218	-0.3735221924799897	-1.38990350052416	0.06847048543787873	-0.5452252603681703	1.376280001432844	-1.815209100579577	-1.815209100577075	-0.4869280830701923	0.0001807410256322824	-0.9458267684097721	-0.02546090781196368	-4.566362202340878e-07	-1.020489731751832e-07	5.812829898122775e-06	3.110694254022138e-07	-1.075311671935825e-06	-7.924491499818665e-07	-7.423983625970246e-07
0.52	-0.2277773843429458	0.03211566453890752	0.7635342888980936	1.024886223494111	-0.3609602218215504	0.0004149898942816337	-0.4059905908471443	0.9944741092106492	0.9944741092106517	-0.01977266794910403	-0.1745316613611199	0.3293614065586208	0.1737972672472616	-0.7405096598913754	-0.1551284822400261	-0.5250391500984888	2.333444427599705	0.02319904581004793	0.5339071647205414	-0.2810937566527514	1.94669412512041	1.946694125120454	0.2675370548323375	-5.40628608635075e-06	0.5110775563719546	0.2550753636819355	-0.1101688184514792	0.02145456823546739	-0.003073916449568794	-0.2044612645158718	-0.008386954067905406	0.02596618845733276	0.1216160765043071	-26.32794998715233	-6.412231584865095	0.4499455623340791	-0.1507741587839135	-446.6740964418061	-75.77506778169391	-3.770618662418419	0.3834823828498125	0.4111444698289404	-0.306072264890059	-1.535587233529867	0.1352092587341701	-0.7471717103457197	1.424681050009964	-1.959265746645035	-1.959265746645032	-0.2265225387358493	8.116370374439087e-05	-0.9650637768999351	0.05737578566660173	-4.387065658986712e-07	2.41739487295551e-07	5.786759606775627e-06	3.515884779217305e-07	-1.022432635630058e-06	-4.270049582799162e-07	-7.212307130132163e-07
0.53	-0.235161547963962	0.03058520939304609	0.758269917345592	1.04813941116018	-0.3607236846682463	0.005722336237022395	-0.4087311096743145	1.013839831004067	1.013839831004069	-0.01711744835534648	-0.1745314520779295	0.3344225987108046	0.1763469841259645	-0.7362297004036785	-0.1509420357876979	-0.5277106360563759	2.316877414844357	0.02410786600427147	0.5274913605028658	-0.2669999349098665	1.92618104480329	1.926181044803287	0.2635216896474126	2.373055809896756e-05	0.5011025630190334	0.2548278309862489	-0.114637531855265	0.02175590221095508	-0.003348518814955894	-0.2073677465452831	-0.009656701293991394	0.02642724842244026	0.1250173436371906	-26.88567209854055	-6.436523728858514	0.3643872536110857	-0.1352409120741224	-450.0332187624697	-76.2602583376552	-3.241016999658172	0.4642253021672648	0.4255459787808822	-0.2292070409877885	-1.764665701642068	0.06774202428691364	-0.6000460748469073	1.4032438171811	-2.137565465745573	-2.137565465752564	-0.4867462090738668	0.001914382721404802	-1.022468821473848	-0.07259931047070042	-4.149445867781561e-07	5.149912663359421e-07	5.63711557459566e-06	3.78613560821395e-07	-9.600291079951995e-07	-1.026580594868559e-07	-6.890239881029391e-07
0.54	-0.2425001174760136	0.02909724896087712	0.7529825268775616	1.071217447217675	-0.3604782545880961	0.0109632722781136	-0.4113303880679053	1.032992374736015	1.032992374736014	-0.01450192295358413	-0.174531434538703	0.3393822905880621	0.1788928693750536	-0.7313908380984756	-0.1466295395015327	-0.5296429332042462	2.298414105884816	0.02497763117931238	0.5206251043904552	-0.2528456699368459	1.904058512826167	1.904058512826117	0.2595982164343661	-4.375507989684835e-05	0.4907775013866864	0.2543090377591865	-0.1191062452590508	0.02205723618644889	-0.003623121180398471	-0.2102742285746936	-0.01092644852007475	0.02688830838755838	0.1284186107700731	-27.43904367010024	-6.469550088120366	0.2893310771227051	-0.1601338147331559	-453.3365430051967	-76.8468145015253	-2.757663888968399	0.4952629463510566	0.436354436596316	-0.1582345028866767	-1.914846474368433	0.1273982548976441	-0.8372620892927343	1.436769696037101	-2.281156078645627	-2.281156078645631	-0.2081441443601385	-0.01924333273249057	-1.035077432785176	0.003123679391443358	-3.847298227890214e-07	7.102024616661653e-07	5.350751658941084e-06	3.907091454182441e-07	-8.870878452728368e-07	1.76219493960198e-07	-6.446038181506115e-07
